# xmcd CD database file
#
# Track frame offsets:
#	150
#	25230
#	39917
#	54321
#	67599
#	82216
#	97922
#
# Disc length: 1581 seconds
#
# Revision: 0
# Processed by: cddbd v1.5.2PL0 Copyright (c) Steve Scherf et al.
# Submitted via: ACXtractor (MTCDDB.DLL V2003.07.15)
#
DISCID=48062b07
DTITLE=Darrell Mansfield and Greg Martin - Kentucky Blues
DYEAR=2014
DGENRE=Bluegrass
TTITLE0=Respect Yourself
TTITLE1=Ain't No Room In This House For Hell
TTITLE2=I'm Ready
TTITLE3=Tell The Truth
TTITLE4=Key To The Highway
TTITLE5=That's How Strong My Love Is
TTITLE6=Hello Goodbye Boogie
EXTD=ID3G:  89 YEAR: 2014
EXTT0=
EXTT1=
EXTT2=
EXTT3=
EXTT4=
EXTT5=
EXTT6=
PLAYORDER=
